<svg width="20" height="20" viewBox="0 0 20 20" fill="none" xmlns="http://www.w3.org/2000/svg">
<g filter="url(#filter0_i_34_1306)">
<circle cx="10" cy="10" r="10" fill="#CA2223"/>
</g>
<path fill-rule="evenodd" clip-rule="evenodd" d="M9.83543 14.9544L10 14.7502L9.83543 14.9544ZM10.1646 14.9544L10.1657 14.9539L10.1686 14.9522L10.1771 14.9464L10.2109 14.9252C10.2394 14.9067 10.2811 14.8797 10.3337 14.8442C10.4389 14.7737 10.588 14.6699 10.766 14.5367C11.2333 14.1872 11.6702 13.8078 12.0731 13.4017C13.0183 12.4451 14 11.0799 14 9.51907C14 8.58655 13.5789 7.69154 12.8291 7.03152C12.4586 6.70486 12.0178 6.44556 11.5323 6.26852C11.0468 6.09149 10.526 6.00023 10 6C9.47401 6.0002 8.95327 6.09142 8.46773 6.26841C7.98219 6.4454 7.54144 6.70466 7.17086 7.03127C6.42041 7.69279 5.9995 8.58722 6 9.51932C6 11.0799 6.98171 12.4451 7.92686 13.4017C8.32982 13.8078 8.76674 14.1872 9.234 14.5367C9.41229 14.6699 9.56114 14.7737 9.66629 14.8442C9.71786 14.879 9.76996 14.9131 9.82257 14.9467L9.83171 14.9522L9.83429 14.9539L9.83543 14.9544C9.934 15.0152 10.066 15.0152 10.1646 14.9544V14.9544ZM10 14.7502L10.1646 14.9544L10 14.7502ZM11.4286 9.50007C11.4286 9.8316 11.2781 10.1495 11.0102 10.384C10.7422 10.6184 10.3789 10.7501 10 10.7501C9.62112 10.7501 9.25776 10.6184 8.98985 10.384C8.72194 10.1495 8.57143 9.8316 8.57143 9.50007C8.57143 9.16855 8.72194 8.8506 8.98985 8.61617C9.25776 8.38175 9.62112 8.25005 10 8.25005C10.3789 8.25005 10.7422 8.38175 11.0102 8.61617C11.2781 8.8506 11.4286 9.16855 11.4286 9.50007V9.50007Z" fill="white"/>
<defs>
<filter id="filter0_i_34_1306" x="0" y="0" width="20" height="20" filterUnits="userSpaceOnUse" color-interpolation-filters="sRGB">
<feFlood flood-opacity="0" result="BackgroundImageFix"/>
<feBlend mode="normal" in="SourceGraphic" in2="BackgroundImageFix" result="shape"/>
<feColorMatrix in="SourceAlpha" type="matrix" values="0 0 0 0 0 0 0 0 0 0 0 0 0 0 0 0 0 0 127 0" result="hardAlpha"/>
<feOffset/>
<feGaussianBlur stdDeviation="4"/>
<feComposite in2="hardAlpha" operator="arithmetic" k2="-1" k3="1"/>
<feColorMatrix type="matrix" values="0 0 0 0 1 0 0 0 0 1 0 0 0 0 1 0 0 0 0.35 0"/>
<feBlend mode="normal" in2="shape" result="effect1_innerShadow_34_1306"/>
</filter>
</defs>
</svg>
