<svg width="187" height="23" viewBox="0 0 187 23" fill="none" xmlns="http://www.w3.org/2000/svg">
<path d="M68.0193 3.39551H79.2533C79.928 3.39551 80.5736 3.53871 81.193 3.8209C81.8121 4.10284 82.3552 4.48066 82.8207 4.95733C83.2862 5.434 83.6606 5.98425 83.9388 6.6071C84.2173 7.23019 84.357 7.88005 84.357 8.56136V14.5631C84.357 15.014 84.2909 15.4503 84.1625 15.8646C84.0342 16.2788 83.8521 16.67 83.6199 17.0342C83.3871 17.3991 83.1101 17.7346 82.7877 18.0351C82.4654 18.3354 82.1131 18.5933 81.7318 18.8123C81.3473 19.0328 80.94 19.1993 80.5109 19.3182C80.0828 19.4371 79.6416 19.4944 79.1911 19.4944H67.4292C66.6995 19.4944 66.0177 19.366 65.3832 19.1093C64.749 18.849 64.2027 18.4934 63.7409 18.0351C63.2789 17.5768 62.9159 17.0305 62.6483 16.3962C62.3842 15.762 62.2524 15.0727 62.2524 14.3285V8.18379C62.2524 7.4834 62.4174 6.83826 62.7472 6.25158C63.0772 5.66491 63.5135 5.159 64.056 4.73733C64.6023 4.31591 65.219 3.98664 65.904 3.75127C66.5933 3.51417 67.2971 3.39551 68.0193 3.39551ZM80.093 7.59712H66.4612V15.4246H80.093V7.59712Z" fill="#CA2223"/>
<path d="M41.0782 19.5603H37.137V7.36996C37.137 6.81624 37.238 6.29845 37.4412 5.81162C37.6449 5.32354 37.927 4.89692 38.2846 4.53223C38.6418 4.16778 39.061 3.87791 39.5419 3.66683C40.0213 3.45649 40.5428 3.35168 41.1002 3.35168C41.6317 3.35168 42.1197 3.44336 42.5667 3.62645C43.0139 3.80953 43.4202 4.05654 43.7839 4.37093C44.1495 4.68707 44.4729 5.05746 44.7518 5.48533C45.0293 5.91072 45.261 6.36583 45.4594 6.84201L48.7577 14.7606L52.4001 6.3579C52.5723 5.89956 52.7881 5.48434 53.0453 5.11147C53.3007 4.74083 53.5993 4.42173 53.9362 4.16184C54.2731 3.9017 54.6477 3.69879 55.0583 3.56055C55.472 3.42107 55.9197 3.35168 56.4073 3.35168C57.0234 3.35168 57.5806 3.4773 58.0756 3.72183C58.5733 3.96785 59.0007 4.30058 59.355 4.71556C59.7075 5.12856 59.9801 5.61119 60.1688 6.15624C60.3569 6.69931 60.455 7.26417 60.455 7.8501V19.5603H56.5138V7.63753L52.6239 16.1542C52.3305 16.7922 52.0595 17.3504 51.8098 17.8226C51.5578 18.299 51.2816 18.6956 50.9813 19.0103C49.6325 20.4259 47.9627 20.1688 46.5995 18.7903C46.2477 18.435 45.9321 18.0314 45.6536 17.5731C45.3752 17.1152 45.1309 16.6321 44.9022 16.1324L41.0782 7.78792V19.5603Z" fill="#CA2223"/>
<path d="M119.894 3.27466H132.081C134.029 3.27319 136.036 5.24448 136.162 7.46511H118.263V9.35697H131.696V13.5586H118.263V15.3183H136.168C136.098 17.5896 133.808 19.5872 132.093 19.6262H119.854C119.103 19.6262 118.38 19.4979 117.695 19.2415C117.005 18.9811 116.397 18.6218 115.869 18.1598C115.337 17.6978 114.916 17.148 114.6 16.5063C114.285 15.8646 114.127 15.1608 114.127 14.3945V8.49554C114.127 7.67794 114.278 6.94832 114.578 6.29922C114.879 5.65036 115.29 5.10406 115.81 4.6569C116.327 4.20598 116.94 3.86631 117.64 3.63019C118.34 3.39384 119.095 3.27466 119.894 3.27466ZM136.17 3.27466H136.17V7.46511H136.17V3.27466Z" fill="#CA2223"/>
<path d="M168.174 3.24486V9.19267H182.407V3.23132H186.52V15.3654C186.534 17.3296 184.594 19.2871 182.407 19.4494V13.3281H168.174V19.4619H164.06V7.69491C164.06 5.34796 165.873 3.42353 168.174 3.24486Z" fill="#CA2223"/>
<path d="M84.7612 19.3972C84.8772 17.0198 86.1422 15.3562 88.3997 15.0893L89.5378 8.2259C89.7725 6.78425 90.1065 5.58438 91.1218 4.67341C91.6044 4.24008 92.1687 3.90465 92.8045 3.66161C93.4384 3.41955 94.1096 3.29492 94.8137 3.29492H99.2907H99.2929H103.77C104.474 3.29492 105.145 3.41955 105.779 3.66161C106.415 3.90465 106.979 4.24008 107.462 4.67341C108.477 5.58438 108.811 6.78425 109.046 8.2259L110.184 15.0893C112.441 15.3562 113.706 17.0198 113.822 19.3972H99.2929H99.2907H84.7612ZM99.2929 7.45244H99.2907H93.3617L92.2235 15.0893H99.2907H99.2929H106.36L105.222 7.45244H99.2929Z" fill="#CA2223"/>
<path d="M155.906 3.32959C156.665 3.32959 157.395 3.45493 158.091 3.69972C158.791 3.94575 159.405 4.29306 159.939 4.74102C160.472 5.1872 160.896 5.72359 161.211 6.34323C161.527 6.96286 161.684 7.64462 161.684 8.38888C161.684 9.10391 161.541 9.77506 161.255 10.4019C160.97 11.0284 160.584 11.5752 160.1 12.0442C159.617 12.5135 159.055 12.8841 158.414 13.1517C157.773 13.4192 157.097 13.5547 156.39 13.5547H143.037V19.5602H138.678V7.46792C138.674 5.13047 140.774 3.32959 143.13 3.32959H155.906ZM143.037 7.46501V9.52559H157.376V7.46501H143.037Z" fill="#CA2223"/>
<path fill-rule="evenodd" clip-rule="evenodd" d="M31.3876 5.58514L32.5415 0H10.2009C7.87894 0 5.58512 1.42967 4.32641 3.45359C12.2195 0.02715 18.7549 10.6007 31.0008 7.45687L31.3876 5.58514H31.3876ZM29.0741 16.7825C28.4338 19.8113 25.4765 22.2836 22.4458 22.3397L22.2494 22.3406H0L2.4881 10.298C9.35722 3.44293 19.4005 14.3617 30.2875 10.9097L29.0855 16.7274C28.779 18.21 29.076 16.7735 29.0741 16.7825Z" fill="#CA2223"/>
</svg>
