<svg width="30" height="30" viewBox="0 0 30 30" fill="none" xmlns="http://www.w3.org/2000/svg">
<circle cx="15" cy="15" r="15" fill="#DC7778"/>
<path d="M22.7016 9.21658C22.8779 9.3676 22.9846 9.57982 22.9985 9.8066C23.0123 10.0334 22.9321 10.2562 22.7755 10.4261L13.2826 20.7122C13.1991 20.8027 13.0967 20.8751 12.982 20.9248C12.8673 20.9744 12.743 21 12.6173 21C12.4916 21 12.3674 20.9744 12.2527 20.9248C12.138 20.8751 12.0356 20.8027 11.9521 20.7122L7.20561 15.5691C7.05797 15.3981 6.98515 15.1785 7.00252 14.9567C7.0199 14.7349 7.12611 14.5283 7.29872 14.3805C7.47133 14.2327 7.69683 14.1554 7.92757 14.1648C8.15831 14.1741 8.37623 14.2695 8.53529 14.4308L12.6169 18.853L21.4458 9.28687C21.6028 9.11728 21.8232 9.01462 22.0586 9.00145C22.2941 8.98827 22.5254 9.06564 22.7016 9.21658Z" fill="white"/>
</svg>
