<svg width="22" height="22" viewBox="0 0 22 22" fill="none" xmlns="http://www.w3.org/2000/svg">
<circle cx="11" cy="11" r="11" fill="url(#paint0_linear_16_707)"/>
<path fill-rule="evenodd" clip-rule="evenodd" d="M15.2464 6.74171C14.1171 5.61714 12.6205 5 11.023 5C7.73145 5 5.0505 7.66514 5.0505 10.9474C5.0505 11.9943 5.32594 13.0183 5.84927 13.9189L5 17L8.16756 16.1726C9.03979 16.648 10.0222 16.8949 11.023 16.8949H11.0275C14.319 16.8949 17 14.2251 17 10.9474C16.9954 9.35657 16.3757 7.86629 15.2464 6.74171ZM11.023 15.8891C10.1324 15.8891 9.25555 15.6514 8.4935 15.1989L8.31446 15.0937L6.43229 15.5829L6.93267 13.7589L6.81331 13.5714C6.31752 12.7851 6.05585 11.8754 6.05585 10.9429C6.05585 8.21829 8.28233 6.00114 11.023 6.00114C12.3497 6.00114 13.5937 6.51771 14.5348 7.45029C15.4713 8.38286 15.9901 9.62629 15.9855 10.9474C15.9855 13.672 13.759 15.8891 11.023 15.8891ZM13.7452 12.1863C13.5937 12.1131 12.8638 11.752 12.7261 11.7017C12.5884 11.6514 12.492 11.6286 12.391 11.7749C12.29 11.9257 12.0054 12.2594 11.9181 12.3554C11.8309 12.456 11.7437 12.4651 11.5968 12.392C11.4453 12.3189 10.9679 12.1589 10.3986 11.656C9.95333 11.2629 9.65493 10.7737 9.56771 10.6274C9.48049 10.4766 9.55853 10.3989 9.63198 10.3257C9.70084 10.2571 9.78347 10.152 9.85692 10.0651C9.93037 9.97829 9.95792 9.91429 10.0084 9.81829C10.0589 9.71771 10.0314 9.63086 9.99464 9.55771C9.95792 9.48457 9.65953 8.75314 9.53558 8.456C9.41622 8.168 9.29227 8.20457 9.20046 8.2C9.11324 8.19543 9.01224 8.19543 8.91584 8.19543C8.81484 8.19543 8.65417 8.232 8.51645 8.38286C8.37873 8.53371 7.99311 8.89029 7.99311 9.62171C7.99311 10.3531 8.52563 11.0571 8.60367 11.1577C8.67712 11.2583 9.65493 12.7577 11.1515 13.4023C11.5096 13.5531 11.785 13.6446 12.0008 13.7131C12.3588 13.8274 12.6848 13.8091 12.9419 13.7726C13.2265 13.7314 13.8233 13.4114 13.9472 13.064C14.0712 12.7166 14.0712 12.4194 14.0344 12.3554C13.9931 12.3006 13.8921 12.264 13.7452 12.1863Z" fill="white"/>
<defs>
<linearGradient id="paint0_linear_16_707" x1="11" y1="0" x2="11" y2="22" gradientUnits="userSpaceOnUse">
<stop stop-color="#5FFC7B"/>
<stop offset="1" stop-color="#28D146"/>
</linearGradient>
</defs>
</svg>
