<svg width="88" height="88" viewBox="0 0 88 88" fill="none" xmlns="http://www.w3.org/2000/svg">
<rect width="88" height="88" rx="44" fill="#DC7778"/>
<path d="M41.9881 44.35C41.9881 50.4833 40.3881 55.1333 37.1881 58.3C34.8214 60.6 31.8381 61.75 28.2381 61.75C24.7048 61.75 21.7548 60.6 19.3881 58.3C16.1881 55.1333 14.5881 50.4833 14.5881 44.35C14.5881 38.1167 16.1881 33.45 19.3881 30.35C21.7548 28.05 24.7048 26.9 28.2381 26.9C31.8381 26.9 34.8214 28.05 37.1881 30.35C40.3881 33.45 41.9881 38.1167 41.9881 44.35ZM31.3881 34.75C30.5214 33.9167 29.4881 33.5 28.2881 33.5C27.0881 33.5 26.0548 33.9167 25.1881 34.75C23.3214 36.5833 22.3881 39.7667 22.3881 44.3C22.3881 48.8667 23.3214 52.0667 25.1881 53.9C26.0548 54.7333 27.0881 55.15 28.2881 55.15C29.4881 55.15 30.5214 54.7333 31.3881 53.9C33.2548 52.0667 34.1881 48.8667 34.1881 44.3C34.1881 39.7667 33.2548 36.5833 31.3881 34.75ZM69.4314 54.5V61H43.9314L53.9314 50.1C56.3648 47.3667 58.1814 45.1 59.3814 43.3C60.7148 41.1667 61.3814 39.2833 61.3814 37.65C61.3814 36.25 60.9481 35.15 60.0814 34.35C59.3814 33.7167 58.3648 33.4 57.0314 33.4C55.7314 33.4 54.7148 33.8 53.9814 34.6C53.0481 35.6333 52.5814 37 52.5814 38.7H44.8814C45.1814 35.2333 46.3314 32.45 48.3314 30.35C50.4981 28.05 53.5648 26.9 57.5314 26.9C61.0981 26.9 63.9814 27.95 66.1814 30.05C68.2481 32.1167 69.2814 34.7833 69.2814 38.05C69.2814 40.6167 68.4481 43.0667 66.7814 45.4C65.7814 46.8 63.9981 48.7167 61.4314 51.15L57.9314 54.5H69.4314Z" fill="white"/>
</svg>
