<svg width="88" height="88" viewBox="0 0 88 88" fill="none" xmlns="http://www.w3.org/2000/svg">
<rect width="88" height="88" rx="44" fill="#DC7778"/>
<path d="M42.7195 44.35C42.7195 50.4833 41.1195 55.1333 37.9195 58.3C35.5529 60.6 32.5695 61.75 28.9695 61.75C25.4362 61.75 22.4862 60.6 20.1195 58.3C16.9195 55.1333 15.3195 50.4833 15.3195 44.35C15.3195 38.1167 16.9195 33.45 20.1195 30.35C22.4862 28.05 25.4362 26.9 28.9695 26.9C32.5695 26.9 35.5529 28.05 37.9195 30.35C41.1195 33.45 42.7195 38.1167 42.7195 44.35ZM32.1195 34.75C31.2529 33.9167 30.2195 33.5 29.0195 33.5C27.8195 33.5 26.7862 33.9167 25.9195 34.75C24.0529 36.5833 23.1195 39.7667 23.1195 44.3C23.1195 48.8667 24.0529 52.0667 25.9195 53.9C26.7862 54.7333 27.8195 55.15 29.0195 55.15C30.2195 55.15 31.2529 54.7333 32.1195 53.9C33.9862 52.0667 34.9195 48.8667 34.9195 44.3C34.9195 39.7667 33.9862 36.5833 32.1195 34.75ZM68.65 27.65V48.6H72.65V54.7H68.65V61H61.25V54.7H44.95V50.3L59.65 27.65H68.65ZM53.05 48.6H61.25V35.65L53.05 48.6Z" fill="white"/>
</svg>
