<svg width="88" height="88" viewBox="0 0 88 88" fill="none" xmlns="http://www.w3.org/2000/svg">
<rect width="88" height="88" rx="44" fill="#DC7778"/>
<path d="M43.7576 44.35C43.7576 50.4833 42.1576 55.1333 38.9576 58.3C36.591 60.6 33.6076 61.75 30.0076 61.75C26.4743 61.75 23.5243 60.6 21.1576 58.3C17.9576 55.1333 16.3576 50.4833 16.3576 44.35C16.3576 38.1167 17.9576 33.45 21.1576 30.35C23.5243 28.05 26.4743 26.9 30.0076 26.9C33.6076 26.9 36.591 28.05 38.9576 30.35C42.1576 33.45 43.7576 38.1167 43.7576 44.35ZM33.1576 34.75C32.291 33.9167 31.2576 33.5 30.0576 33.5C28.8576 33.5 27.8243 33.9167 26.9576 34.75C25.091 36.5833 24.1576 39.7667 24.1576 44.3C24.1576 48.8667 25.091 52.0667 26.9576 53.9C27.8243 54.7333 28.8576 55.15 30.0576 55.15C31.2576 55.15 32.291 54.7333 33.1576 53.9C35.0243 52.0667 35.9576 48.8667 35.9576 44.3C35.9576 39.7667 35.0243 36.5833 33.1576 34.75ZM53.5119 61V34.15H48.7619V27.65H61.2119V61H53.5119Z" fill="white"/>
</svg>
