<svg width="88" height="88" viewBox="0 0 88 88" fill="none" xmlns="http://www.w3.org/2000/svg">
<rect width="88" height="88" rx="44" fill="#DC7778"/>
<path d="M42.7195 44.35C42.7195 50.4833 41.1195 55.1333 37.9195 58.3C35.5529 60.6 32.5695 61.75 28.9695 61.75C25.4362 61.75 22.4862 60.6 20.1195 58.3C16.9195 55.1333 15.3195 50.4833 15.3195 44.35C15.3195 38.1167 16.9195 33.45 20.1195 30.35C22.4862 28.05 25.4362 26.9 28.9695 26.9C32.5695 26.9 35.5529 28.05 37.9195 30.35C41.1195 33.45 42.7195 38.1167 42.7195 44.35ZM32.1195 34.75C31.2529 33.9167 30.2195 33.5 29.0195 33.5C27.8195 33.5 26.7862 33.9167 25.9195 34.75C24.0529 36.5833 23.1195 39.7667 23.1195 44.3C23.1195 48.8667 24.0529 52.0667 25.9195 53.9C26.7862 54.7333 27.8195 55.15 29.0195 55.15C30.2195 55.15 31.2529 54.7333 32.1195 53.9C33.9862 52.0667 34.9195 48.8667 34.9195 44.3C34.9195 39.7667 33.9862 36.5833 32.1195 34.75ZM53.65 37.65H46.25C46.5833 34.55 47.6833 32.0333 49.55 30.1C51.5833 28 54.4 26.95 58 26.95C61.8667 26.95 64.7833 27.9333 66.75 29.9C68.45 31.5333 69.3 33.8 69.3 36.7C69.3 38.5 68.85 40.0167 67.95 41.25C67.3167 42.15 66.4833 42.85 65.45 43.35C67.1167 43.95 68.3833 44.85 69.25 46.05C70.2833 47.45 70.8 49.2 70.8 51.3C70.8 54.3333 69.6833 56.8667 67.45 58.9C65.3167 60.8333 62.3833 61.8 58.65 61.8C54.45 61.8 51.2 60.65 48.9 58.35C46.7667 56.1833 45.5333 53.4333 45.2 50.1H52.9C53.0333 51.6667 53.5667 52.9167 54.5 53.85C55.4 54.75 56.6333 55.2 58.2 55.2C59.6 55.2 60.7167 54.8167 61.55 54.05C62.45 53.2167 62.9 52.0833 62.9 50.65C62.9 49.3167 62.4167 48.25 61.45 47.45C60.55 46.75 59.1833 46.4 57.35 46.4H56.75V41.1H57.2C58.6667 41.1 59.7833 40.7833 60.55 40.15C61.3833 39.45 61.8 38.45 61.8 37.15C61.8 36.0167 61.4333 35.1167 60.7 34.45C59.9667 33.7833 59.0167 33.45 57.85 33.45C56.5833 33.45 55.5833 33.8167 54.85 34.55C54.1167 35.35 53.7167 36.3833 53.65 37.65Z" fill="white"/>
</svg>
